TITLE ""
FILE "Disc4Track61.mp3" MP3
  TRACK 01 AUDIO
    TITLE "Disc4Track61_01"
    INDEX 01 00:00:00
  TRACK 02 AUDIO
    TITLE "Disc4Track61_02"
    INDEX 01 00:01:23
  TRACK 03 AUDIO
    TITLE "Disc4Track61_03"
    INDEX 01 00:03:16
  TRACK 04 AUDIO
    TITLE "Disc4Track61_04"
    INDEX 01 00:04:51
  TRACK 05 AUDIO
    TITLE "Disc4Track61_05"
    INDEX 01 00:08:45
  TRACK 06 AUDIO
    TITLE "Disc4Track61_06"
    INDEX 01 00:09:01
  TRACK 07 AUDIO
    TITLE "Disc4Track61_07"
    INDEX 01 00:10:42
  TRACK 08 AUDIO
    TITLE "Disc4Track61_08"
    INDEX 01 00:11:45
  TRACK 09 AUDIO
    TITLE "Disc4Track61_09"
    INDEX 01 00:13:09
  TRACK 10 AUDIO
    TITLE "Disc4Track61_10"
    INDEX 01 00:15:22
  TRACK 11 AUDIO
    TITLE "Disc4Track61_11"
    INDEX 01 00:15:61
  TRACK 12 AUDIO
    TITLE "Disc4Track61_12"
    INDEX 01 00:17:03
  TRACK 13 AUDIO
    TITLE "Disc4Track61_13"
    INDEX 01 00:18:32
  TRACK 14 AUDIO
    TITLE "Disc4Track61_14"
    INDEX 01 00:19:53
  TRACK 15 AUDIO
    TITLE "Disc4Track61_15"
    INDEX 01 00:20:15
  TRACK 16 AUDIO
    TITLE "Disc4Track61_16"
    INDEX 01 00:21:40
  TRACK 17 AUDIO
    TITLE "Disc4Track61_17"
    INDEX 01 00:22:41
  TRACK 18 AUDIO
    TITLE "Disc4Track61_18"
    INDEX 01 00:23:66
  TRACK 19 AUDIO
    TITLE "Disc4Track61_19"
    INDEX 01 00:28:52
  TRACK 20 AUDIO
    TITLE "Disc4Track61_20"
    INDEX 01 00:29:08
  TRACK 21 AUDIO
    TITLE "Disc4Track61_21"
    INDEX 01 00:30:25
  TRACK 22 AUDIO
    TITLE "Disc4Track61_22"
    INDEX 01 00:33:70
  TRACK 23 AUDIO
    TITLE "Disc4Track61_23"
    INDEX 01 00:35:11
  TRACK 24 AUDIO
    TITLE "Disc4Track61_24"
    INDEX 01 00:37:09
  TRACK 25 AUDIO
    TITLE "Disc4Track61_25"
    INDEX 01 00:37:41
  TRACK 26 AUDIO
    TITLE "Disc4Track61_26"
    INDEX 01 00:38:68
  TRACK 27 AUDIO
    TITLE "Disc4Track61_27"
    INDEX 01 00:39:55
  TRACK 28 AUDIO
    TITLE "Disc4Track61_28"
    INDEX 01 00:41:07
  TRACK 29 AUDIO
    TITLE "Disc4Track61_29"
    INDEX 01 00:44:45
  TRACK 30 AUDIO
    TITLE "Disc4Track61_30"
    INDEX 01 00:45:01
  TRACK 31 AUDIO
    TITLE "Disc4Track61_31"
    INDEX 01 00:46:20
  TRACK 32 AUDIO
    TITLE "Disc4Track61_32"
    INDEX 01 00:47:08
  TRACK 33 AUDIO
    TITLE "Disc4Track61_33"
    INDEX 01 00:48:27
  TRACK 34 AUDIO
    TITLE "Disc4Track61_34"
    INDEX 01 00:48:64
  TRACK 35 AUDIO
    TITLE "Disc4Track61_35"
    INDEX 01 00:50:04
  TRACK 36 AUDIO
    TITLE "Disc4Track61_36"
    INDEX 01 00:52:03
  TRACK 37 AUDIO
    TITLE "Disc4Track61_37"
    INDEX 01 00:53:16
  TRACK 38 AUDIO
    TITLE "Disc4Track61_38"
    INDEX 01 00:57:32
  TRACK 39 AUDIO
    TITLE "Disc4Track61_39"
    INDEX 01 00:57:63
  TRACK 40 AUDIO
    TITLE "Disc4Track61_40"
    INDEX 01 00:58:70
  TRACK 41 AUDIO
    TITLE "Disc4Track61_41"
    INDEX 01 01:01:10
  TRACK 42 AUDIO
    TITLE "Disc4Track61_42"
    INDEX 01 01:02:17
  TRACK 43 AUDIO
    TITLE "Disc4Track61_43"
    INDEX 01 01:06:35
  TRACK 44 AUDIO
    TITLE "Disc4Track61_44"
    INDEX 01 01:06:74
  TRACK 45 AUDIO
    TITLE "Disc4Track61_45"
    INDEX 01 01:08:34
  TRACK 46 AUDIO
    TITLE "Disc4Track61_46"
    INDEX 01 01:09:41
  TRACK 47 AUDIO
    TITLE "Disc4Track61_47"
    INDEX 01 01:11:01
  TRACK 48 AUDIO
    TITLE "Disc4Track61_48"
    INDEX 01 01:14:44
